<?xml version="1.0" encoding="UTF-8"?> <!-- Generator: Adobe Illustrator 16.0.0, SVG Export Plug-In . SVG Version: 6.00 Build 0) --> <svg xmlns="http://www.w3.org/2000/svg" xmlns:xlink="http://www.w3.org/1999/xlink" version="1.1" id="Layer_1" x="0px" y="0px" width="304.568px" height="129.594px" viewBox="0 0 304.568 129.594" xml:space="preserve"> <path fill="#3D4756" d="M65.703,27.646c15.033,1.062,21.768,5.511,21.53,15.803l-0.025,6.406l-8.839-0.11l0.021-4.851 c0.04-10.072-9.867-8.193-23.62-8.389c-13.755,0.194-23.663-1.683-23.621,8.389c0.013,3.308,0.012,6.612,0,9.922 c-0.041,10.061,9.843,8.2,23.576,8.388v-0.021c22.968-0.587,32.753,3.521,32.463,16.042v12.81 c0.239,10.357-6.417,14.952-21.725,15.901H45.482c-16.218-0.848-23.468-5.23-23.223-15.901l0.027-6.405l8.838,0.11l-0.021,4.851 c-0.042,10.072,9.865,8.194,23.621,8.391c13.755-0.196,23.663,1.682,23.619-8.391c-0.013-3.307-0.012-6.611,0-9.922 c0.042-10.06-9.843-8.199-23.576-8.39v0.023C31.801,72.89,22.014,68.78,22.304,56.261V43.449 c-0.232-10.026,6.001-14.657,20.291-15.803H65.703z"></path> <path fill="#3D4756" d="M190.509,27.633l16.277-0.006l52.437,73.69l0.018-73.692l8.602,0.002l-0.02,80.306 c-5.337,0-10.613-0.017-15.947,0.003l-52.823-73.417v73.266h-8.6L190.509,27.633z"></path> <path fill="#3D4756" d="M159.574,84.276L138.67,35.4l-20.906,48.876H159.574z M130.508,27.631c5.441,0,10.884,0,16.327,0 l34.778,80.305H170.02l-7.416-16.795h-47.867l-7.414,16.795H95.729L130.508,27.631z"></path> <g> <circle fill="#FFFFFF" cx="275.057" cy="31.145" r="3.215"></circle> <path fill="#3D4756" d="M275.057,34.665c-1.941,0-3.52-1.579-3.52-3.521c0-1.941,1.578-3.52,3.52-3.52 c1.942,0,3.521,1.579,3.521,3.52C278.577,33.086,276.999,34.665,275.057,34.665z M275.057,28.236c-1.604,0-2.91,1.305-2.91,2.909 c0,1.605,1.306,2.911,2.91,2.911s2.91-1.306,2.91-2.911C277.967,29.541,276.661,28.236,275.057,28.236z"></path> <g> <path fill="#3D4756" d="M273.458,33.112v-3.935h1.746c0.35,0,0.617,0.036,0.799,0.105c0.185,0.071,0.33,0.196,0.438,0.375 c0.108,0.178,0.163,0.376,0.163,0.592c0,0.28-0.09,0.516-0.271,0.706c-0.181,0.192-0.459,0.314-0.839,0.365 c0.139,0.067,0.244,0.132,0.314,0.196c0.153,0.14,0.296,0.315,0.434,0.523l0.684,1.072h-0.655l-0.521-0.819 c-0.151-0.236-0.276-0.416-0.376-0.542c-0.098-0.125-0.186-0.213-0.263-0.262c-0.078-0.051-0.156-0.085-0.238-0.106 c-0.06-0.012-0.154-0.019-0.29-0.019h-0.604v1.748H273.458z M273.981,30.916h1.118c0.236,0,0.424-0.025,0.559-0.075 c0.135-0.049,0.235-0.128,0.306-0.235c0.069-0.109,0.105-0.226,0.105-0.353c0-0.186-0.068-0.339-0.204-0.459 c-0.135-0.12-0.348-0.179-0.641-0.179h-1.245v1.301H273.981z"></path> </g> </g> </svg> 